<?xml version="1.0" encoding="UTF-8" standalone="no"?>
<!DOCTYPE svg PUBLIC "-//W3C//DTD SVG 1.1//EN" "http://www.w3.org/Graphics/SVG/1.1/DTD/svg11.dtd">
<svg width="100%" height="100%" viewBox="0 0 128 128" version="1.1" xmlns="http://www.w3.org/2000/svg" xmlns:xlink="http://www.w3.org/1999/xlink" xml:space="preserve" xmlns:serif="http://www.serif.com/" style="fill-rule:evenodd;clip-rule:evenodd;">
    <path d="M126,16L126,112C126,119.727 119.727,126 112,126L16,126C8.273,126 2,119.727 2,112L2,16C2,8.273 8.273,2 16,2L112,2C119.727,2 126,8.273 126,16Z" style="stroke:rgb(141,141,141);stroke-width:4px;"/>
    <g transform="matrix(5.63238,0,0,5.63238,-71.769304,-252.709212)">
        <path d="M19.299,56.974C19.299,57.848 19.278,58.466 19.237,58.83C19.196,59.193 19.067,59.525 18.85,59.826C18.633,60.127 18.341,60.358 17.972,60.519C17.603,60.68 17.173,60.761 16.683,60.761C16.217,60.761 15.799,60.685 15.429,60.532C15.058,60.38 14.76,60.152 14.534,59.848C14.309,59.543 14.175,59.212 14.132,58.854C14.089,58.496 14.067,57.869 14.067,56.974L14.067,55.486C14.067,54.612 14.088,53.994 14.129,53.63C14.17,53.267 14.299,52.935 14.516,52.634C14.732,52.333 15.025,52.102 15.394,51.941C15.763,51.78 16.192,51.7 16.683,51.7C17.148,51.7 17.566,51.776 17.937,51.928C18.308,52.08 18.606,52.308 18.831,52.613C19.057,52.917 19.191,53.248 19.234,53.606C19.277,53.964 19.299,54.591 19.299,55.486L19.299,56.974ZM17.037,54.117C17.037,53.712 17.015,53.453 16.97,53.34C16.925,53.228 16.833,53.171 16.694,53.171C16.575,53.171 16.485,53.217 16.422,53.308C16.36,53.4 16.328,53.669 16.328,54.117L16.328,58.177C16.328,58.682 16.349,58.994 16.39,59.112C16.431,59.23 16.527,59.289 16.677,59.289C16.831,59.289 16.93,59.221 16.973,59.085C17.016,58.949 17.037,58.625 17.037,58.113L17.037,54.117Z" style="fill:rgb(255,0,0);fill-rule:nonzero;"/>
        <path d="M20.692,51.882L22.292,51.882C23.359,51.882 24.082,51.923 24.46,52.006C24.837,52.088 25.145,52.298 25.383,52.637C25.622,52.975 25.741,53.515 25.741,54.256C25.741,54.933 25.656,55.388 25.488,55.62C25.32,55.853 24.989,55.993 24.495,56.039C24.942,56.15 25.243,56.299 25.397,56.485C25.551,56.671 25.647,56.842 25.684,56.998C25.722,57.154 25.741,57.583 25.741,58.285L25.741,60.578L23.641,60.578L23.641,57.688C23.641,57.223 23.604,56.935 23.53,56.824C23.457,56.713 23.265,56.657 22.953,56.657L22.953,60.578L20.692,60.578L20.692,51.882ZM22.953,53.37L22.953,55.304C23.207,55.304 23.385,55.269 23.487,55.199C23.59,55.129 23.641,54.903 23.641,54.519L23.641,54.041C23.641,53.766 23.591,53.585 23.493,53.499C23.394,53.413 23.214,53.37 22.953,53.37Z" style="fill:rgb(0,255,0);fill-rule:nonzero;"/>
        <path d="M34.143,51.882L34.143,60.578L32.167,60.578L32.167,54.707L31.377,60.578L29.975,60.578L29.143,54.842L29.143,60.578L27.166,60.578L27.166,51.882L30.093,51.882C30.179,52.405 30.271,53.021 30.367,53.731L30.679,55.943L31.194,51.882L34.143,51.882Z" style="fill:rgb(0,82,255);fill-rule:nonzero;"/>
    </g>
</svg>
